<svg width="56" height="56" viewBox="0 0 56 56" fill="none" xmlns="http://www.w3.org/2000/svg">
<g id="Brain--Streamline-Core">
<g id="brain--medical-health-brain">
<path id="Union" d="M18.4784 5.75293C23.7364 5.75293 27.9989 10.0154 27.9989 15.2735L27.9987 41.1552C27.9987 47.1728 23.1203 52.0512 17.1025 52.0512C11.0846 52.0512 6.20624 47.1728 6.20624 41.1552C6.20624 40.8468 6.21908 40.5416 6.2442 40.2396C3.97646 37.8034 2.54565 33.038 2.54565 29.062C2.54565 23.644 5.20228 18.3762 9.01312 16.3055C8.97656 15.9665 8.9578 15.6222 8.9578 15.2735C8.9578 10.0154 13.2203 5.75293 18.4784 5.75293Z" stroke="#385340" stroke-width="2" stroke-linecap="round" stroke-linejoin="round"/>
<path id="Vector 605" d="M14.0443 22.7764C12.6463 22.4576 9.47857 20.3802 9.00061 16.3301" stroke="#385340" stroke-width="2" stroke-linecap="round" stroke-linejoin="round"/>
<path id="Vector 610" d="M19.8801 33.4592C25.5902 32.8218 27.8529 26.7958 28 24.3447" stroke="#385340" stroke-width="2" stroke-linecap="round" stroke-linejoin="round"/>
<path id="Vector 606" d="M9.15797 34.5273C7.73573 35.6503 6.60177 38.1953 6.23438 40.234" stroke="#385340" stroke-width="2" stroke-linecap="round" stroke-linejoin="round"/>
<path id="Union_2" d="M37.5207 5.75293C32.2626 5.75293 28.0001 10.0154 28.0001 15.2735L28.0004 41.1552C28.0004 47.1728 32.8788 52.0512 38.8966 52.0512C44.9144 52.0512 49.7928 47.1728 49.7928 41.1552C49.7928 40.8468 49.78 40.5416 49.7548 40.2396C52.0224 37.8034 53.4532 33.038 53.4532 29.062C53.4532 23.644 50.7968 18.3762 46.986 16.3055C47.0224 15.9665 47.0412 15.6222 47.0412 15.2735C47.0412 10.0154 42.7788 5.75293 37.5207 5.75293Z" stroke="#385340" stroke-width="2" stroke-linecap="round" stroke-linejoin="round"/>
<path id="Vector 611" d="M41.9548 22.7764C43.3528 22.4576 46.5204 20.3802 46.9984 16.3301" stroke="#385340" stroke-width="2" stroke-linecap="round" stroke-linejoin="round"/>
<path id="Vector 612" d="M36.1188 33.4592C30.4088 32.8218 28.146 26.7958 27.9989 24.3447" stroke="#385340" stroke-width="2" stroke-linecap="round" stroke-linejoin="round"/>
<path id="Vector 613" d="M46.8412 34.5273C48.2632 35.6503 49.3972 38.1953 49.7648 40.234" stroke="#385340" stroke-width="2" stroke-linecap="round" stroke-linejoin="round"/>
</g>
</g>
</svg>
